<?xml version="1.0" encoding="UTF-8" standalone="no"?>
<!-- Created with Inkscape (http://www.inkscape.org/) -->

<svg
   xmlns:dc="http://purl.org/dc/elements/1.1/"
   xmlns:cc="http://creativecommons.org/ns#"
   xmlns:rdf="http://www.w3.org/1999/02/22-rdf-syntax-ns#"
   xmlns:svg="http://www.w3.org/2000/svg"
   xmlns="http://www.w3.org/2000/svg"
   xmlns:xlink="http://www.w3.org/1999/xlink"
   version="1.1"
   width="100%"
   height="100%"
   viewBox="0 0 48 48"
   id="svg2">
  <metadata
     id="metadata33">
    <rdf:RDF>
      <cc:Work
         rdf:about="">
        <dc:format>image/svg+xml</dc:format>
        <dc:type
           rdf:resource="http://purl.org/dc/dcmitype/StillImage" />
        <dc:title></dc:title>
      </cc:Work>
    </rdf:RDF>
  </metadata>
  <defs
     id="defs4">
    <linearGradient
       x1="1"
       x2="47"
       id="linearGradient3764"
       gradientUnits="userSpaceOnUse"
       gradientTransform="matrix(0,-1,1,0,-1.5e-6,47.999998)">
      <stop
         id="stop7"
         style="stop-color:#3d3d3d;stop-opacity:1"
         offset="0" />
      <stop
         id="stop9"
         style="stop-color:#474747;stop-opacity:1"
         offset="1" />
    </linearGradient>
    <linearGradient
       x1="1"
       x2="47"
       id="linearGradient3764-2"
       gradientUnits="userSpaceOnUse"
       gradientTransform="matrix(0,-1,1,0,-1.5e-6,47.999998)">
      <stop
         id="stop7-4"
         style="stop-color:#3d3d3d;stop-opacity:1"
         offset="0" />
      <stop
         id="stop9-6"
         style="stop-color:#474747;stop-opacity:1"
         offset="1" />
    </linearGradient>
  </defs>
  <g
     id="g11"
     style="fill:#000000">
    <path
       d="m 36.31,5 c 5.859,4.062 9.688,10.831 9.688,18.5 0,12.426 -10.07,22.5 -22.5,22.5 -7.669,0 -14.438,-3.828 -18.5,-9.688 1.037,1.822 2.306,3.499 3.781,4.969 4.085,3.712 9.514,5.969 15.469,5.969 12.703,0 23,-10.298 23,-23 0,-5.954 -2.256,-11.384 -5.969,-15.469 C 39.81,7.306 38.132,6.037 36.31,5 z m 4.969,3.781 c 3.854,4.113 6.219,9.637 6.219,15.719 0,12.703 -10.297,23 -23,23 -6.081,0 -11.606,-2.364 -15.719,-6.219 4.16,4.144 9.883,6.719 16.219,6.719 12.703,0 23,-10.298 23,-23 0,-6.335 -2.575,-12.06 -6.719,-16.219 z"
       id="path13"
       style="opacity:0.05;fill:#000000" />
    <path
       d="m 41.28,8.781 c 3.712,4.085 5.969,9.514 5.969,15.469 0,12.703 -10.297,23 -23,23 -5.954,0 -11.384,-2.256 -15.469,-5.969 4.113,3.854 9.637,6.219 15.719,6.219 12.703,0 23,-10.298 23,-23 0,-6.081 -2.364,-11.606 -6.219,-15.719 z"
       id="path15"
       style="opacity:0.1;fill:#000000" />
    <path
       d="M 31.25,2.375 C 39.865,5.529 46,13.792 46,23.505 c 0,12.426 -10.07,22.5 -22.5,22.5 -9.708,0 -17.971,-6.135 -21.12,-14.75 a 23,23 0 0 0 44.875,-7 23,23 0 0 0 -16,-21.875 z"
       id="path17"
       style="opacity:0.2;fill:#000000" />
  </g>
  <g
     id="g19">
    <path
       d="M 24,1 C 36.703,1 47,11.297 47,24 47,36.703 36.703,47 24,47 11.297,47 1,36.703 1,24 1,11.297 11.297,1 24,1 z"
       id="path21"
       style="fill:url(#linearGradient3764);fill-opacity:1" />
  </g>
  <g
     id="g23"
     style="fill:#000000">
    <path
       d="m 40.03,7.531 c 3.712,4.084 5.969,9.514 5.969,15.469 0,12.703 -10.297,23 -23,23 C 17.045,46 11.615,43.744 7.53,40.031 11.708,44.322 17.54,47 23.999,47 c 12.703,0 23,-10.298 23,-23 0,-6.462 -2.677,-12.291 -6.969,-16.469 z"
       id="path25"
       style="opacity:0.1;fill:#000000" />
  </g>
  <path
     d="m 39.957351,17.128417 -0.267578,-0.002 0.4375,-0.003 c 0.395544,-0.0027 0.933106,0.0012 0.938806,0.0069 0.0023,0.0023 -0.715457,10e-4 -1.108728,-0.0019 z"
     id="path3063"
     style="fill:#1a1a1a" />
  <path
     d="m 14.303742,35.241286 0,-0.251682 -0.970774,0 -0.970774,0 0,-0.539319 0,-0.539319 -0.503364,0 -0.503364,0 0,-1.114592 0,-1.114592 -0.46741,0 -0.467409,0 0,-0.539319 0,-0.539318 -0.5033645,0 -0.5033641,0 0,-3.775231 0,-3.775232 -1.0067283,0 -1.0067283,0 0,-0.503364 0,-0.503364 -0.5033642,0 c -0.4889823,0 -0.5033641,-0.0051 -0.5033641,-0.179773 l 0,-0.179773 17.7256085,0 17.725609,0 0,0.179773 c 0,0.174637 -0.01438,0.179773 -0.503364,0.179773 l -0.503364,0 0,0.503364 0,0.503364 -0.970774,0 -0.970773,0 0,3.775232 0,3.775231 -0.503364,0 -0.503365,0 0,0.539318 0,0.539319 -0.503364,0 -0.503364,0 0,1.114592 0,1.114592 -0.503364,0 -0.503364,0 0,0.539319 0,0.539319 -0.970774,0 -0.970774,0 0,0.251682 0,0.251682 -9.815601,0 -9.8156,0 0,-0.251682 z"
     id="path3001"
     style="fill:#fd175a;fill-opacity:1" />
  <path
     d="m 6.3937335,21.326862 0,-0.359545 -0.5033642,0 -0.5033641,0 0,-1.078638 0,-1.078637 0.5033641,0 0.5033642,0 0,-0.539319 0,-0.539319 2.0134566,0 2.0134569,0 0,-0.575273 0,-0.575273 0.467409,0 0.46741,0 0,-1.039398 0,-1.039397 0.485387,-0.02126 0.485387,-0.02126 0.02001,-0.988751 0.02001,-0.988751 11.753089,0 11.75309,0 0.02001,0.988751 0.02001,0.988751 0.485387,0.02126 0.485387,0.02126 0,1.039397 0,1.039398 0.503364,0 0.503364,0 0,0.575273 0,0.575273 1.977502,0 1.977502,0 0,0.539319 0,0.539319 0.46741,0 0.46741,0 0,1.078637 0,1.078638 -0.46741,0 -0.46741,0 0,0.359545 0,0.359546 -17.725609,0 -17.7256085,0 0,-0.359546 z"
     id="path3003"
     style="fill:#fd175a;fill-opacity:1" />
  <path
     d="m 21.135112,39.807518 0,-0.575274 -1.438183,0 -1.438183,0 0,-0.539318 0,-0.539319 -0.503365,0 -0.503364,0 0,-0.539319 0,-0.539319 -0.970773,0 -0.970774,0 0,-0.539318 0,-0.539319 -0.503364,0 -0.503364,0 0,-0.251682 0,-0.251682 9.8156,0 9.815601,0 0,0.251682 0,0.251682 -0.503364,0 -0.503364,0 0,0.539319 0,0.539318 -0.970774,0 -0.970773,0 0,0.539319 0,0.539319 -0.503364,0 -0.503365,0 0,0.539319 0,0.539318 -1.474138,0 -1.474137,0 0,0.575274 0,0.575273 -2.948276,0 -2.948276,0 0,-0.575273 z"
     id="path3005"
     style="fill:#fd175a;fill-opacity:1" />
  <path
     d="m 12.362194,12.413412 c 0,-0.03774 0.218424,-0.07819 0.485387,-0.08989 l 0.485387,-0.02126 0.02113,-0.521341 0.02113,-0.521342 0.464259,0 0.46426,0 0,-0.575273 0,-0.575273 0.503364,0 0.503364,0 0,-0.5393189 0,-0.5393187 0.970774,0 0.970773,0 0,-0.5033642 0,-0.5033641 1.941548,0 1.941547,0 0,-0.5393187 0,-0.5393188 2.945126,0 2.945125,0 0.02113,0.5213415 0.02113,0.5213414 1.959525,0.019133 1.959525,0.019133 0,0.5022085 0,0.5022084 0.970773,0 0.970774,0 0,0.5393187 0,0.5393189 0.503364,0 0.503364,0 0,0.575273 0,0.575273 0.46741,0 0.46741,0 0,0.539319 0,0.539319 0.503364,0 c 0.287636,0 0.503364,0.03082 0.503364,0.07191 0,0.04765 -3.966989,0.07191 -11.757149,0.07191 -7.414891,0 -11.757148,-0.02534 -11.757148,-0.06862 z"
     id="path3007"
     style="fill:#fd175a;fill-opacity:1" />
  <g
     id="g3014">
    <path
       d="M 23.31244,46.990354 C 17.532976,46.830066 11.894102,44.392176 7.74639,40.260588 4.1661484,36.694264 1.9229041,32.25925 1.1977337,27.313544 0.28343524,21.077974 1.8959263,14.978271 5.8116279,9.8601904 6.5902889,8.8424284 8.4775176,6.9170881 9.5063029,6.0909031 11.985272,4.1001198 15.184412,2.4931842 18.238781,1.7045584 c 2.069954,-0.5344543 3.461169,-0.7038178 5.785752,-0.704345 2.180703,-4.9474e-4 3.286764,0.1122601 5.118189,0.5217611 8.483484,1.8968809 15.253262,8.5070725 17.34674,16.9378195 1.325873,5.339489 0.685388,10.956263 -1.809801,15.871134 -1.232954,2.428597 -2.596471,4.271877 -4.564162,6.170097 -4.544185,4.383747 -10.452316,6.665465 -16.803059,6.489329 z m 3.782992,-7.16216 0,-0.576327 1.468692,0 1.468691,0 0,-0.531994 0,-0.531992 0.489563,0 0.489564,0 0,-0.531994 0,-0.531993 0.979127,0 0.979128,0 0,-0.531993 0,-0.531994 0.489563,0 0.489565,0 0,-0.531993 0,-0.531993 0.979127,0 0.979128,0 0,-0.531994 0,-0.531993 0.489563,0 0.489563,0 0,-1.10832 0,-1.108319 0.53407,0 0.53407,0 0,-0.531993 0,-0.531994 0.489564,0 0.489562,0 0,-3.768287 0,-3.768286 0.979128,0 0.979128,0 0,-0.531993 0,-0.531994 0.489564,0 0.489563,0 0,-0.531992 0,-0.531994 0.489564,0 0.489564,0 0,-1.108321 0,-1.108318 -0.489564,0 -0.489564,0 0,-0.531994 0,-0.531993 -1.958255,0 -1.958254,0 0,-0.576325 0,-0.576327 -0.53407,0 -0.53407,0 0,-1.063988 0,-1.063986 -0.489563,0 -0.489563,0 0,-1.063986 0,-1.063987 -0.489564,0 -0.489564,0 0,-0.531993 0,-0.531994 -0.489564,0 -0.489563,0 0,-0.576327 0,-0.576326 -0.489565,0 -0.489563,0 0,-0.5319927 0,-0.5319934 -0.979128,0 -0.979127,0 0,-0.5319934 0,-0.5319933 -1.958254,0 -1.958256,0 0,-0.5319933 0,-0.5319934 -2.981887,0 -2.981888,0 0,0.5319934 0,0.5319933 -1.958255,0 -1.958254,0 0,0.5319933 0,0.5319934 -0.979128,0 -0.979128,0 0,0.5319934 0,0.5319927 -0.489563,0 -0.489564,0 0,0.576326 0,0.576327 -0.489564,0 -0.489564,0 0,0.531994 0,0.531993 -0.489563,0 -0.489564,0 0,1.063987 0,1.063986 -0.489563,0 -0.489563,0 0,1.063986 0,1.063988 -0.489565,0 -0.489563,0 0,0.576327 0,0.576325 -2.002761,0 -2.0027605,0 0,0.531993 0,0.531994 -0.4895639,0 -0.4895636,0 0,1.108318 0,1.108321 0.4895636,0 0.4895639,0 0,0.531994 0,0.531992 0.4895637,0 0.4895636,0 0,0.531994 0,0.531993 1.0236332,0 1.0236331,0 0,3.768286 0,3.768287 0.4895638,0 0.4895641,0 0,0.531994 0,0.531993 0.489563,0 0.489565,0 0,1.108319 0,1.10832 0.489563,0 0.489563,0 0,0.531993 0,0.531994 0.979127,0 0.979128,0 0,0.531993 0,0.531993 0.489564,0 0.489563,0 0,0.531994 0,0.531993 0.979128,0 0.979128,0 0,0.531993 0,0.531994 0.489564,0 0.489562,0 0,0.531992 0,0.531994 1.468691,0 1.468692,0 0,0.576327 0,0.576326 2.981888,0 2.981887,0 0,-0.576326 z"
       id="path3161"
       style="fill:#fd175a;fill-opacity:1" />
    <g
       id="g3011">
      <path
         d="m 40.484859,22.616064 a 15.100924,14.309924 0 1 1 -30.201847,0 15.100924,14.309924 0 1 1 30.201847,0 z"
         transform="matrix(1.2880952,0,0,1.2336683,-8.5714019,-4.601521)"
         id="path3009"
         style="fill:#fd175a;fill-opacity:1" />
    </g>
  </g>
  <image
     xlink:href="file:///home/aca/Foka/data/pig/pig.png"
     x="4.8494525"
     y="7.316998"
     width="38.269993"
     height="39.204815"
     id="image3081" />
</svg>
